<?xml version="1.0" encoding="UTF-8"?>
<svg width="1447px" height="234px" viewBox="0 0 1447 234" version="1.1" xmlns="http://www.w3.org/2000/svg" xmlns:xlink="http://www.w3.org/1999/xlink">
    <!-- Generator: Sketch 61.2 (89653) - https://sketch.com -->
    <title>gp projekte gmbh</title>
    <desc>Created with Sketch.</desc>
    <g id="Page-1" stroke="none" stroke-width="1" fill="none" fill-rule="evenodd">
        <g id="gp-projekte-gmbh">
            <path d="M117,0 C181.617316,0 234,52.3826843 234,117 C234,137.87472 228.533224,157.472607 218.95324,174.440093 L218.95,139.95 L153.25,139.95 L153.25,171 L183.625,171 L183.625,200.025 C180.175,201.525 176.425,202.6125 172.375,203.2875 C168.325,203.9625 164.05,204.3 159.55,204.3 C151.75,204.3 144.8125,203.0625 138.7375,200.5875 C132.6625,198.1125 127.5625,194.6625 123.4375,190.2375 C119.3125,185.8125 116.2,180.525 114.1,174.375 C112,168.225 110.95,161.475 110.95,154.125 C110.95,146.925 112.1125,140.2875 114.4375,134.2125 C116.7625,128.1375 120.025,122.8875 124.225,118.4625 C128.425,114.0375 133.375,110.5875 139.075,108.1125 C144.775,105.6375 151,104.4 157.75,104.4 C165.55,104.4 172.525,105.7875 178.675,108.5625 C184.605357,111.238393 189.419898,114.64654 193.118622,118.786942 L193.525,119.25 L217.825,91.575 C211.075,85.125 202.3,79.9875 191.5,76.1625 C180.7,72.3375 169,70.425 156.4,70.425 C144.25,70.425 132.925,72.375 122.425,76.275 C111.925,80.175 102.775,85.7625 94.975,93.0375 C87.175,100.3125 81.0625,109.125 76.6375,119.475 C72.2125,129.825 70,141.375 70,154.125 C70,166.725 72.175,178.1625 76.525,188.4375 C80.875,198.7125 86.9125,207.525 94.6375,214.875 C102.3625,222.225 111.5875,227.925 122.3125,231.975 C123.839316,232.55156 125.386652,233.08708 126.954508,233.581561 C123.673613,233.858932 120.353281,234 117,234 C52.3826843,234 0,181.617316 0,117 C0,52.3826843 52.3826843,0 117,0 Z" id="Combined-Shape" fill="#0076BA"></path>
            <path d="M329,1.42108547e-14 C393.617316,1.42108547e-14 446,52.3826843 446,117 C446,175.530692 403.020908,224.023079 346.900656,232.639229 L346.9,173.925 L366.025,173.925 C374.275,173.925 382.225,173.025 389.875,171.225 C397.525,169.425 404.275,166.575 410.125,162.675 C415.975,158.775 420.625,153.6375 424.075,147.2625 C427.525,140.8875 429.25,133.05 429.25,123.75 C429.25,114.6 427.6375,106.9125 424.4125,100.6875 C421.1875,94.4625 416.7625,89.4375 411.1375,85.6125 C405.5125,81.7875 398.9125,79.0125 391.3375,77.2875 C384.091848,75.6375 376.331545,74.7766304 368.056593,74.7048913 L366.925,74.7 L308.425,74.7 L308.424492,232.196696 C270.485898,225.466106 238.866111,200.452255 222.997014,166.587029 C230.058064,151.531238 234,134.725963 234,117 C234,99.2740365 230.058064,82.4687617 223.002986,67.4129707 C241.660154,27.5851556 282.108648,1.42108547e-14 329,1.42108547e-14 Z M363.775,105.75 C367.225,105.75 370.5625,105.975 373.7875,106.425 C377.0125,106.875 379.9,107.775 382.45,109.125 C385,110.475 387.025,112.35 388.525,114.75 C390.025,117.15 390.775,120.225 390.775,123.975 C390.775,127.725 390.025,130.8375 388.525,133.3125 C387.025,135.7875 384.9625,137.775 382.3375,139.275 C379.7125,140.775 376.75,141.825 373.45,142.425 C370.15,143.025 366.7,143.325 363.1,143.325 L346.9,143.325 L346.9,105.75 L363.775,105.75 Z" id="Combined-Shape" fill="#B51800"></path>
            <path d="M552.025,227.52 L552.025,158.167 L552.694,158.167 C556.559333,164.113667 561.837,168.722333 568.527,171.993 C575.217,175.263667 582.353,176.899 589.935,176.899 C598.111667,176.899 605.470667,175.4495 612.012,172.5505 C618.553333,169.6515 624.128333,165.674667 628.737,160.62 C633.345667,155.565333 636.913667,149.618667 639.441,142.78 C641.968333,135.941333 643.232,128.656667 643.232,120.926 C643.232,113.195333 641.968333,105.947833 639.441,99.1835 C636.913667,92.4191667 633.3085,86.5096667 628.6255,81.455 C623.9425,76.4003333 618.3675,72.4606667 611.9005,69.636 C605.4335,66.8113333 598.260333,65.399 590.381,65.399 C581.609667,65.399 573.916167,67.2201667 567.3005,70.8625 C560.684833,74.5048333 555.667333,79.1506667 552.248,84.8 L552.248,84.8 L551.579,84.8 L551.579,68.298 L531.063,68.298 L531.063,227.52 L552.025,227.52 Z M586.367,159.282 C581.015,159.282 576.146167,158.241333 571.7605,156.16 C567.374833,154.078667 563.621,151.291167 560.499,147.7975 C557.377,144.303833 554.961167,140.252667 553.2515,135.644 C551.541833,131.035333 550.687,126.203667 550.687,121.149 C550.687,116.094333 551.541833,111.262667 553.2515,106.654 C554.961167,102.045333 557.377,97.957 560.499,94.389 C563.621,90.821 567.374833,87.9963333 571.7605,85.915 C576.146167,83.8336667 581.015,82.793 586.367,82.793 C592.165,82.793 597.256833,83.8336667 601.6425,85.915 C606.028167,87.9963333 609.707667,90.821 612.681,94.389 C615.654333,97.957 617.884333,102.045333 619.371,106.654 C620.857667,111.262667 621.601,116.02 621.601,120.926 C621.601,125.832 620.857667,130.589333 619.371,135.198 C617.884333,139.806667 615.654333,143.895 612.681,147.463 C609.707667,151.031 606.028167,153.892833 601.6425,156.0485 C597.256833,158.204167 592.165,159.282 586.367,159.282 Z M693.407,174 L693.407,118.473 C693.407,114.013 694.001667,109.738833 695.191,105.6505 C696.380333,101.562167 698.2015,97.957 700.6545,94.835 C703.1075,91.713 706.192333,89.2228333 709.909,87.3645 C713.625667,85.5061667 718.011333,84.577 723.066,84.577 C726.485333,84.577 729.681667,84.9486667 732.655,85.692 L732.655,85.692 L733.547,66.291 C731.317,65.6963333 728.566667,65.399 725.296,65.399 C718.16,65.399 711.730167,67.2945 706.0065,71.0855 C700.282833,74.8765 695.934333,79.894 692.961,86.138 L692.961,86.138 L692.292,86.138 C692.292,83.908 692.217667,81.0461667 692.069,77.5525 C691.920333,74.0588333 691.697333,70.974 691.4,68.298 L691.4,68.298 L671.553,68.298 C671.850333,71.7173333 672.073333,75.657 672.222,80.117 C672.370667,84.577 672.445,88.2193333 672.445,91.044 L672.445,91.044 L672.445,174 L693.407,174 Z M799.109,176.899 C807.137,176.899 814.644667,175.523833 821.632,172.7735 C828.619333,170.023167 834.6775,166.157833 839.8065,161.1775 C844.9355,156.197167 848.9495,150.287667 851.8485,143.449 C854.7475,136.610333 856.197,129.102667 856.197,120.926 C856.197,112.749333 854.7475,105.278833 851.8485,98.5145 C848.9495,91.7501667 844.9355,85.915 839.8065,81.009 C834.6775,76.103 828.619333,72.2748333 821.632,69.5245 C814.644667,66.7741667 807.137,65.399 799.109,65.399 C791.081,65.399 783.573333,66.7741667 776.586,69.5245 C769.598667,72.2748333 763.577667,76.103 758.523,81.009 C753.468333,85.915 749.4915,91.7501667 746.5925,98.5145 C743.6935,105.278833 742.244,112.749333 742.244,120.926 C742.244,129.102667 743.6935,136.610333 746.5925,143.449 C749.4915,150.287667 753.468333,156.197167 758.523,161.1775 C763.577667,166.157833 769.598667,170.023167 776.586,172.7735 C783.573333,175.523833 791.081,176.899 799.109,176.899 Z M799.109,159.282 C793.459667,159.282 788.442167,158.241333 784.0565,156.16 C779.670833,154.078667 775.991333,151.254 773.018,147.686 C770.044667,144.118 767.7775,140.029667 766.2165,135.421 C764.6555,130.812333 763.875,125.980667 763.875,120.926 C763.875,115.871333 764.6555,111.039667 766.2165,106.431 C767.7775,101.822333 770.044667,97.7711667 773.018,94.2775 C775.991333,90.7838333 779.670833,87.9963333 784.0565,85.915 C788.442167,83.8336667 793.459667,82.793 799.109,82.793 C804.758333,82.793 809.775833,83.8336667 814.1615,85.915 C818.547167,87.9963333 822.226667,90.7838333 825.2,94.2775 C828.173333,97.7711667 830.4405,101.822333 832.0015,106.431 C833.5625,111.039667 834.343,115.871333 834.343,120.926 C834.343,125.980667 833.5625,130.812333 832.0015,135.421 C830.4405,140.029667 828.173333,144.118 825.2,147.686 C822.226667,151.254 818.547167,154.078667 814.1615,156.16 C809.775833,158.241333 804.758333,159.282 799.109,159.282 Z M896.114,43.545 C899.979333,43.545 903.287167,42.2813333 906.0375,39.754 C908.787833,37.2266667 910.163,34.0303333 910.163,30.165 C910.163,26.2996667 908.787833,23.0661667 906.0375,20.4645 C903.287167,17.8628333 899.979333,16.562 896.114,16.562 C892.248667,16.562 888.940833,17.8628333 886.1905,20.4645 C883.440167,23.0661667 882.065,26.2996667 882.065,30.165 C882.065,33.8816667 883.440167,37.0408333 886.1905,39.6425 C888.940833,42.2441667 892.248667,43.545 896.114,43.545 Z M872.253,227.52 C879.240333,227.52 884.964,226.442167 889.424,224.2865 C893.884,222.130833 897.377667,219.194667 899.905,215.478 C902.432333,211.761333 904.179167,207.524333 905.1455,202.767 C906.111833,198.009667 906.595,192.955 906.595,187.603 L906.595,187.603 L906.595,68.298 L885.633,68.298 L885.633,186.934 C885.633,190.056 885.447167,192.992167 885.0755,195.7425 C884.703833,198.492833 883.997667,200.8715 882.957,202.8785 C881.916333,204.8855 880.429667,206.483667 878.497,207.673 C876.564333,208.862333 874.037,209.457 870.915,209.457 C868.239,209.457 865.414333,209.085333 862.441,208.342 L862.441,208.342 L860.211,226.182 C861.846333,226.479333 863.779,226.776667 866.009,227.074 C868.239,227.371333 870.320333,227.52 872.253,227.52 Z M992.004,176.899 C1001.37,176.899 1009.88117,175.152167 1017.5375,171.6585 C1025.19383,168.164833 1031.84667,162.701333 1037.496,155.268 L1037.496,155.268 L1022.778,143.449 C1019.80467,147.909 1015.71633,151.7 1010.513,154.822 C1005.30967,157.944 999.14,159.505 992.004,159.505 C987.395333,159.505 983.046833,158.687333 978.9585,157.052 C974.870167,155.416667 971.265,153.1495 968.143,150.2505 C965.021,147.3515 962.530833,143.932167 960.6725,139.9925 C958.814167,136.052833 957.810667,131.853 957.662,127.393 L957.662,127.393 L1041.51,127.393 C1041.65867,126.203667 1041.733,125.014333 1041.733,123.825 L1041.733,123.825 L1041.733,120.257 C1041.733,111.783 1040.54367,104.163833 1038.165,97.3995 C1035.78633,90.6351667 1032.40417,84.8743333 1028.0185,80.117 C1023.63283,75.3596667 1018.28083,71.7173333 1011.9625,69.19 C1005.64417,66.6626667 998.619667,65.399 990.889,65.399 C983.158333,65.399 975.948,66.7741667 969.258,69.5245 C962.568,72.2748333 956.77,76.103 951.864,81.009 C946.958,85.915 943.129833,91.8245 940.3795,98.7375 C937.629167,105.6505 936.254,113.195333 936.254,121.372 C936.254,129.697333 937.666333,137.279333 940.491,144.118 C943.315667,150.956667 947.181,156.791833 952.087,161.6235 C956.993,166.455167 962.865333,170.209 969.704,172.885 C976.542667,175.561 983.976,176.899 992.004,176.899 Z M1020.548,111.783 L957.662,111.783 C957.959333,107.620333 959.037167,103.717833 960.8955,100.0755 C962.753833,96.4331667 965.1325,93.274 968.0315,90.598 C970.9305,87.922 974.349833,85.8035 978.2895,84.2425 C982.229167,82.6815 986.429,81.901 990.889,81.901 C995.795,81.901 1000.06917,82.6815 1003.7115,84.2425 C1007.35383,85.8035 1010.4015,87.922 1012.8545,90.598 C1015.3075,93.274 1017.16583,96.4331667 1018.4295,100.0755 C1019.69317,103.717833 1020.39933,107.620333 1020.548,111.783 L1020.548,111.783 Z M1092.354,174 L1092.354,119.142 L1093.023,119.142 L1140.745,174 L1169.735,174 L1115.992,116.243 L1165.498,68.298 L1137.4,68.298 L1093.023,114.236 L1092.354,114.236 L1092.354,5.412 L1071.392,5.412 L1071.392,174 L1092.354,174 Z M1222.14,175.784 C1225.41067,175.784 1228.56983,175.523833 1231.6175,175.0035 C1234.66517,174.483167 1237.45267,173.777 1239.98,172.885 L1239.98,172.885 L1239.311,155.714 C1237.527,156.606 1235.52,157.275 1233.29,157.721 C1231.06,158.167 1228.97867,158.39 1227.046,158.39 C1221.84267,158.39 1218.05167,157.014833 1215.673,154.2645 C1213.29433,151.514167 1212.105,146.942667 1212.105,140.55 L1212.105,140.55 L1212.105,85.469 L1240.203,85.469 L1240.203,68.298 L1212.105,68.298 L1212.105,37.97 L1191.366,37.97 L1191.366,68.298 L1171.073,68.298 L1171.073,85.469 L1191.366,85.469 L1191.366,142.78 C1191.366,153.781333 1194.00483,162.032333 1199.2825,167.533 C1204.56017,173.033667 1212.17933,175.784 1222.14,175.784 Z M1310.671,176.899 C1320.037,176.899 1328.54817,175.152167 1336.2045,171.6585 C1343.86083,168.164833 1350.51367,162.701333 1356.163,155.268 L1356.163,155.268 L1341.445,143.449 C1338.47167,147.909 1334.38333,151.7 1329.18,154.822 C1323.97667,157.944 1317.807,159.505 1310.671,159.505 C1306.06233,159.505 1301.71383,158.687333 1297.6255,157.052 C1293.53717,155.416667 1289.932,153.1495 1286.81,150.2505 C1283.688,147.3515 1281.19783,143.932167 1279.3395,139.9925 C1277.48117,136.052833 1276.47767,131.853 1276.329,127.393 L1276.329,127.393 L1360.177,127.393 C1360.32567,126.203667 1360.4,125.014333 1360.4,123.825 L1360.4,123.825 L1360.4,120.257 C1360.4,111.783 1359.21067,104.163833 1356.832,97.3995 C1354.45333,90.6351667 1351.07117,84.8743333 1346.6855,80.117 C1342.29983,75.3596667 1336.94783,71.7173333 1330.6295,69.19 C1324.31117,66.6626667 1317.28667,65.399 1309.556,65.399 C1301.82533,65.399 1294.615,66.7741667 1287.925,69.5245 C1281.235,72.2748333 1275.437,76.103 1270.531,81.009 C1265.625,85.915 1261.79683,91.8245 1259.0465,98.7375 C1256.29617,105.6505 1254.921,113.195333 1254.921,121.372 C1254.921,129.697333 1256.33333,137.279333 1259.158,144.118 C1261.98267,150.956667 1265.848,156.791833 1270.754,161.6235 C1275.66,166.455167 1281.53233,170.209 1288.371,172.885 C1295.20967,175.561 1302.643,176.899 1310.671,176.899 Z M1339.215,111.783 L1276.329,111.783 C1276.62633,107.620333 1277.70417,103.717833 1279.5625,100.0755 C1281.42083,96.4331667 1283.7995,93.274 1286.6985,90.598 C1289.5975,87.922 1293.01683,85.8035 1296.9565,84.2425 C1300.89617,82.6815 1305.096,81.901 1309.556,81.901 C1314.462,81.901 1318.73617,82.6815 1322.3785,84.2425 C1326.02083,85.8035 1329.0685,87.922 1331.5215,90.598 C1333.9745,93.274 1335.83283,96.4331667 1337.0965,100.0755 C1338.36017,103.717833 1339.06633,107.620333 1339.215,111.783 L1339.215,111.783 Z" id="projekte" fill="#A0A0A0" fill-rule="nonzero"></path>
            <path d="M1358.68,144.08 C1361.8,144.08 1364.68,143.76 1367.32,143.12 C1369.96,142.48 1372.4,141.56 1374.64,140.36 L1374.64,140.36 L1374.64,119.78 L1359.34,119.78 L1359.34,124.82 L1368.76,124.82 L1368.76,136.64 C1367.52,137.32 1366.06,137.84 1364.38,138.2 C1362.7,138.56 1360.86,138.74 1358.86,138.74 C1356.34,138.74 1354.06,138.3 1352.02,137.42 C1349.98,136.54 1348.26,135.33 1346.86,133.79 C1345.46,132.25 1344.38,130.44 1343.62,128.36 C1342.86,126.28 1342.48,124.06 1342.48,121.7 C1342.48,119.38 1342.86,117.19 1343.62,115.13 C1344.38,113.07 1345.46,111.26 1346.86,109.7 C1348.26,108.14 1349.96,106.91 1351.96,106.01 C1353.96,105.11 1356.2,104.66 1358.68,104.66 C1361.12,104.66 1363.33,105.08 1365.31,105.92 C1367.29,106.76 1368.92,107.88 1370.2,109.28 L1370.2,109.28 L1374.34,104.96 C1372.58,103.28 1370.37,101.94 1367.71,100.94 C1365.05,99.94 1362.02,99.44 1358.62,99.44 C1355.38,99.44 1352.38,99.98 1349.62,101.06 C1346.86,102.14 1344.47,103.65 1342.45,105.59 C1340.43,107.53 1338.85,109.87 1337.71,112.61 C1336.57,115.35 1336,118.38 1336,121.7 C1336,124.98 1336.56,127.99 1337.68,130.73 C1338.8,133.47 1340.36,135.83 1342.36,137.81 C1344.36,139.79 1346.75,141.33 1349.53,142.43 C1352.31,143.53 1355.36,144.08 1358.68,144.08 Z M1390.18,143 L1390.18,127.88 C1390.18,125.04 1390.87,122.77 1392.25,121.07 C1393.63,119.37 1395.36,118.52 1397.44,118.52 C1398.56,118.52 1399.5,118.71 1400.26,119.09 C1401.02,119.47 1401.64,119.99 1402.12,120.65 C1402.6,121.31 1402.94,122.1 1403.14,123.02 C1403.34,123.94 1403.44,124.96 1403.44,126.08 L1403.44,126.08 L1403.44,143 L1409.08,143 L1409.08,127.64 C1409.08,126.52 1409.21,125.42 1409.47,124.34 C1409.73,123.26 1410.15,122.29 1410.73,121.43 C1411.31,120.57 1412.06,119.87 1412.98,119.33 C1413.9,118.79 1415,118.52 1416.28,118.52 C1417.52,118.52 1418.54,118.76 1419.34,119.24 C1420.14,119.72 1420.78,120.36 1421.26,121.16 C1421.74,121.96 1422.08,122.88 1422.28,123.92 C1422.48,124.96 1422.58,126.06 1422.58,127.22 L1422.58,127.22 L1422.58,143 L1428.22,143 L1428.22,125.36 C1428.22,123.76 1428.01,122.26 1427.59,120.86 C1427.17,119.46 1426.52,118.24 1425.64,117.2 C1424.76,116.16 1423.66,115.33 1422.34,114.71 C1421.02,114.09 1419.44,113.78 1417.6,113.78 C1415.56,113.78 1413.68,114.27 1411.96,115.25 C1410.24,116.23 1408.9,117.64 1407.94,119.48 C1407.06,117.44 1405.85,115.98 1404.31,115.1 C1402.77,114.22 1401.04,113.78 1399.12,113.78 C1396.96,113.78 1395.09,114.31 1393.51,115.37 C1391.93,116.43 1390.78,117.72 1390.06,119.24 L1390.06,119.24 L1389.88,119.24 C1389.88,118.64 1389.86,117.89 1389.82,116.99 C1389.78,116.09 1389.72,115.28 1389.64,114.56 L1389.64,114.56 L1384.3,114.56 C1384.38,115.48 1384.44,116.54 1384.48,117.74 C1384.52,118.94 1384.54,119.92 1384.54,120.68 L1384.54,120.68 L1384.54,143 L1390.18,143 Z M1453.72,143.78 C1455.92,143.78 1457.9,143.39 1459.66,142.61 C1461.42,141.83 1462.92,140.76 1464.16,139.4 C1465.4,138.04 1466.36,136.44 1467.04,134.6 C1467.72,132.76 1468.06,130.8 1468.06,128.72 C1468.06,126.64 1467.72,124.69 1467.04,122.87 C1466.36,121.05 1465.39,119.46 1464.13,118.1 C1462.87,116.74 1461.37,115.68 1459.63,114.92 C1457.89,114.16 1455.96,113.78 1453.84,113.78 C1451.48,113.78 1449.44,114.27 1447.72,115.25 C1446,116.23 1444.66,117.42 1443.7,118.82 L1443.7,118.82 L1443.52,118.82 L1443.52,97.64 L1437.88,97.64 L1437.88,143 L1443.34,143 L1443.34,138.5 L1443.46,138.5 C1444.58,140.22 1446.06,141.53 1447.9,142.43 C1449.74,143.33 1451.68,143.78 1453.72,143.78 Z M1452.76,139.04 C1451.32,139.04 1450.01,138.76 1448.83,138.2 C1447.65,137.64 1446.64,136.89 1445.8,135.95 C1444.96,135.01 1444.31,133.92 1443.85,132.68 C1443.39,131.44 1443.16,130.14 1443.16,128.78 C1443.16,127.42 1443.39,126.12 1443.85,124.88 C1444.31,123.64 1444.96,122.54 1445.8,121.58 C1446.64,120.62 1447.65,119.86 1448.83,119.3 C1450.01,118.74 1451.32,118.46 1452.76,118.46 C1454.32,118.46 1455.69,118.74 1456.87,119.3 C1458.05,119.86 1459.04,120.62 1459.84,121.58 C1460.64,122.54 1461.24,123.64 1461.64,124.88 C1462.04,126.12 1462.24,127.4 1462.24,128.72 C1462.24,130.04 1462.04,131.32 1461.64,132.56 C1461.24,133.8 1460.64,134.9 1459.84,135.86 C1459.04,136.82 1458.05,137.59 1456.87,138.17 C1455.69,138.75 1454.32,139.04 1452.76,139.04 Z M1482.16,143 L1482.16,123.56 L1503.64,123.56 L1503.64,143 L1509.64,143 L1509.64,100.52 L1503.64,100.52 L1503.64,118.28 L1482.16,118.28 L1482.16,100.52 L1476.22,100.52 L1476.22,143 L1482.16,143 Z" id="GmbH" fill="#A0A0A0" fill-rule="nonzero" transform="translate(1422.820000, 120.860000) rotate(90.000000) translate(-1422.820000, -120.860000) "></path>
        </g>
    </g>
</svg>